<?xml version="1.0" encoding="utf-8"?>
<!-- Generator: Adobe Illustrator 19.0.0, SVG Export Plug-In . SVG Version: 6.00 Build 0)  -->
<svg version="1.1" id="Logo" xmlns="http://www.w3.org/2000/svg" xmlns:xlink="http://www.w3.org/1999/xlink" x="0px" y="0px"
	 viewBox="0 0 814.4 260.1" style="enable-background:new 0 0 814.4 260.1;" xml:space="preserve">
<style type="text/css">
	.Arched_x0020_Green{fill:url(#SVGID_1_);stroke:#FFFFFF;stroke-width:0.25;stroke-miterlimit:1;}
	.st0{fill:#0B88B3;}
	.st1{fill:#E91C20;}
	.st2{fill:#333333;}
</style>
<linearGradient id="SVGID_1_" gradientUnits="userSpaceOnUse" x1="355.4346" y1="243.3311" x2="356.1417" y2="242.624">
	<stop  offset="0" style="stop-color:#1EAB4B"/>
	<stop  offset="0.9831" style="stop-color:#19361A"/>
</linearGradient>
<g>
	<g>
		<g>
			<path class="st0" d="M117.4,209.8l-29.1-25.4L5.3,255.6c3,2.8,7.1,4.6,11.6,4.6H218c4.5,0,8.5-1.7,11.6-4.6l-83-71.2L117.4,209.8
				z"/>
			<polygon class="st0" points="234.9,246.5 234.9,107 153.8,177.6 			"/>
			<polygon class="st0" points="0,107.1 0,246.5 81.1,177.6 			"/>
		</g>
		<g>
			<polygon class="st1" points="79.6,66.7 101,96.8 193.8,29.4 204,43.5 217.9,0.2 172.3,0 182.7,14.2 105.3,70.5 84.4,40.6 
				16.9,86.4 27.6,101.9 			"/>
			<polygon class="st0" points="28.6,119.3 54.8,142 54.8,94.3 28.6,112.1 			"/>
			<polygon class="st0" points="64.5,87.8 64.5,150.5 90.7,173.7 90.7,93.3 79.6,77.5 			"/>
			<polygon class="st0" points="100.5,182.2 117.4,197.1 126.7,189 126.7,89.1 100.5,108.2 			"/>
			<polygon class="st0" points="136.4,180.5 162.6,157.2 162.6,63 136.4,82 			"/>
			<polygon class="st0" points="186.3,45.9 172.3,56 172.3,148.7 198.5,126 198.5,45.9 			"/>
		</g>
	</g>
	<g>
		<path class="st2" d="M321.7,85.3h-10.5v23.4h-13.2V44.8h23.7c7.5,0,13.4,1.7,17.5,5c4.1,3.4,6.1,8.1,6.1,14.3
			c0,4.4-0.9,8-2.8,10.9c-1.9,2.9-4.7,5.2-8.6,7l13.8,26.1v0.6h-14.1L321.7,85.3z M311.2,74.7h10.6c3.3,0,5.9-0.8,7.7-2.5
			c1.8-1.7,2.7-4,2.7-7c0-3-0.9-5.4-2.6-7.1c-1.7-1.7-4.3-2.6-7.9-2.6h-10.6V74.7z"/>
		<path class="st2" d="M393.8,81h-25.3v17.1h29.6v10.6h-42.8V44.8h42.7v10.7h-29.6v15.2h25.3V81z"/>
		<path class="st2" d="M439,91.9c0-2.5-0.9-4.4-2.6-5.7s-4.9-2.7-9.5-4.2c-4.6-1.5-8.2-2.9-10.8-4.4c-7.3-3.9-10.9-9.2-10.9-15.8
			c0-3.4,1-6.5,2.9-9.2c1.9-2.7,4.7-4.8,8.4-6.3c3.6-1.5,7.7-2.3,12.3-2.3c4.6,0,8.6,0.8,12.2,2.5c3.6,1.7,6.3,4,8.3,7
			c2,3,3,6.4,3,10.3H439c0-2.9-0.9-5.2-2.8-6.8c-1.8-1.6-4.4-2.4-7.8-2.4c-3.2,0-5.7,0.7-7.5,2c-1.8,1.4-2.7,3.1-2.7,5.4
			c0,2.1,1,3.8,3.1,5.2c2.1,1.4,5.2,2.7,9.2,3.9c7.5,2.3,12.9,5,16.4,8.4c3.4,3.3,5.1,7.5,5.1,12.5c0,5.5-2.1,9.9-6.3,13
			c-4.2,3.1-9.8,4.7-16.9,4.7c-4.9,0-9.4-0.9-13.4-2.7c-4-1.8-7.1-4.3-9.2-7.4c-2.1-3.1-3.2-6.8-3.2-10.9h13.2
			c0,7,4.2,10.6,12.6,10.6c3.1,0,5.6-0.6,7.3-1.9C438.1,96,439,94.2,439,91.9z"/>
		<path class="st2" d="M499.5,81h-25.3v17.1h29.6v10.6h-42.8V44.8h42.7v10.7h-29.6v15.2h25.3V81z"/>
		<path class="st2" d="M560.5,55.5H541v53.2h-13.2V55.5h-19.3V44.8h52V55.5z"/>
		<path class="st2" d="M609.8,73.6l13.3-28.8h14.4l-21,40.7v23.2h-13.4V85.5l-21-40.7h14.4L609.8,73.6z"/>
		<path class="st2" d="M694.4,78.2c0,6.3-1.1,11.8-3.3,16.5c-2.2,4.7-5.4,8.4-9.5,11c-4.1,2.6-8.9,3.9-14.2,3.9
			c-5.3,0-10-1.3-14.2-3.8c-4.2-2.5-7.4-6.2-9.6-10.9c-2.3-4.7-3.4-10.2-3.5-16.3v-3.2c0-6.3,1.1-11.8,3.4-16.6
			c2.3-4.8,5.5-8.4,9.6-11c4.1-2.6,8.9-3.8,14.2-3.8s10,1.3,14.2,3.8c4.1,2.6,7.3,6.2,9.6,11s3.4,10.3,3.4,16.6V78.2z M681.1,75.3
			c0-6.7-1.2-11.8-3.6-15.3c-2.4-3.5-5.8-5.2-10.3-5.2c-4.4,0-7.8,1.7-10.2,5.2c-2.4,3.4-3.6,8.5-3.6,15.1v3.1
			c0,6.5,1.2,11.6,3.6,15.2c2.4,3.6,5.8,5.4,10.3,5.4c4.4,0,7.8-1.7,10.2-5.2c2.4-3.5,3.6-8.5,3.6-15.1V75.3z"/>
		<path class="st2" d="M752.3,44.8v42c0,7-2.2,12.5-6.6,16.6c-4.4,4.1-10.3,6.1-17.9,6.1c-7.5,0-13.4-2-17.8-5.9
			c-4.4-3.9-6.6-9.4-6.7-16.3V44.8h13.2V87c0,4.2,1,7.2,3,9.1c2,1.9,4.8,2.9,8.3,2.9c7.4,0,11.2-3.9,11.3-11.7V44.8H752.3z"/>
		<path class="st2" d="M786.7,85.3h-10.5v23.4h-13.2V44.8h23.7c7.5,0,13.4,1.7,17.5,5c4.1,3.4,6.1,8.1,6.1,14.3
			c0,4.4-0.9,8-2.8,10.9c-1.9,2.9-4.7,5.2-8.6,7l13.8,26.1v0.6h-14.1L786.7,85.3z M776.3,74.7h10.6c3.3,0,5.9-0.8,7.7-2.5
			s2.7-4,2.7-7c0-3-0.9-5.4-2.6-7.1c-1.7-1.7-4.3-2.6-7.9-2.6h-10.6V74.7z"/>
		<path class="st2" d="M346.4,208.7h-30.9v32h-16.1v-78.2h50.9v13.1h-34.8v20.2h30.9V208.7z"/>
		<path class="st2" d="M376.7,240.7h-16.1v-78.2h16.1V240.7z"/>
		<path class="st2" d="M455.3,240.7h-16.1l-31.4-51.5v51.5h-16.1v-78.2h16.1l31.4,51.6v-51.6h16.1V240.7z"/>
		<path class="st2" d="M514.5,224.6h-28.3l-5.4,16.1h-17.1l29.1-78.2h14.9l29.3,78.2h-17.1L514.5,224.6z M490.6,211.5h19.6
			l-9.8-29.3L490.6,211.5z"/>
		<path class="st2" d="M607.9,240.7h-16.1l-31.4-51.5v51.5h-16.1v-78.2h16.1l31.4,51.6v-51.6h16.1V240.7z"/>
		<path class="st2" d="M683.4,214.6c-0.6,8.4-3.7,15-9.3,19.9c-5.6,4.8-13,7.3-22.2,7.3c-10,0-17.9-3.4-23.7-10.1
			c-5.7-6.7-8.6-16-8.6-27.8v-4.8c0-7.5,1.3-14.1,4-19.9c2.6-5.7,6.4-10.1,11.4-13.2c4.9-3.1,10.6-4.6,17.2-4.6
			c9,0,16.3,2.4,21.8,7.3c5.5,4.8,8.7,11.6,9.6,20.4h-16.1c-0.4-5-1.8-8.7-4.2-11c-2.4-2.3-6.1-3.4-11-3.4c-5.4,0-9.4,1.9-12.1,5.8
			c-2.7,3.8-4,9.8-4.1,17.9v5.9c0,8.5,1.3,14.6,3.8,18.5c2.6,3.9,6.6,5.9,12.1,5.9c5,0,8.7-1.1,11.1-3.4c2.5-2.3,3.9-5.8,4.2-10.6
			H683.4z"/>
		<path class="st2" d="M741,206.8h-30.9v20.9h36.3v12.9H694v-78.2h52.3v13.1h-36.2v18.6H741V206.8z"/>
		<path class="st2" d="M796.4,220.2c0-3-1.1-5.4-3.2-7c-2.1-1.6-6-3.3-11.6-5.2c-5.6-1.8-10-3.6-13.3-5.3
			c-8.9-4.8-13.3-11.3-13.3-19.4c0-4.2,1.2-8,3.6-11.3c2.4-3.3,5.8-5.9,10.3-7.8c4.5-1.9,9.5-2.8,15-2.8c5.6,0,10.6,1,14.9,3
			c4.4,2,7.8,4.9,10.2,8.6c2.4,3.7,3.6,7.9,3.6,12.6h-16.1c0-3.6-1.1-6.4-3.4-8.4c-2.3-2-5.4-3-9.5-3c-3.9,0-7,0.8-9.2,2.5
			c-2.2,1.7-3.3,3.9-3.3,6.6c0,2.5,1.3,4.7,3.8,6.4c2.6,1.7,6.3,3.3,11.3,4.8c9.2,2.8,15.8,6.2,20,10.3s6.3,9.2,6.3,15.3
			c0,6.8-2.6,12.1-7.7,15.9c-5.1,3.8-12,5.8-20.7,5.8c-6,0-11.5-1.1-16.4-3.3c-4.9-2.2-8.7-5.2-11.3-9.1c-2.6-3.8-3.9-8.3-3.9-13.3
			h16.2c0,8.6,5.2,12.9,15.5,12.9c3.8,0,6.8-0.8,9-2.3C795.3,225.1,796.4,223,796.4,220.2z"/>
	</g>
</g>
</svg>
